<mxfile host="app.diagrams.net" agent="Mozilla/5.0 (Windows NT 10.0; Win64; x64) AppleWebKit/537.36 (KHTML, like Gecko) Chrome/128.0.0.0 Safari/537.36 OPR/114.0.0.0" version="25.0.3">
  <diagram name="PÃ¡gina-1" id="Ah8NjZ5Xg5xbvG-C6Z_T">
    <mxGraphModel dx="1391" dy="731" grid="1" gridSize="10" guides="1" tooltips="1" connect="1" arrows="1" fold="1" page="1" pageScale="1" pageWidth="827" pageHeight="1169" math="0" shadow="0">
      <root>
        <mxCell id="0" />
        <mxCell id="1" parent="0" />
        <mxCell id="hnj8AC3YeiDMYb95IlZ8-1" value="Inicio" style="strokeWidth=2;html=1;shape=mxgraph.flowchart.start_1;whiteSpace=wrap;" vertex="1" parent="1">
          <mxGeometry x="350" y="50" width="100" height="60" as="geometry" />
        </mxCell>
        <mxCell id="hnj8AC3YeiDMYb95IlZ8-2" value="altura" style="html=1;strokeWidth=2;shape=manualInput;whiteSpace=wrap;rounded=1;size=26;arcSize=11;" vertex="1" parent="1">
          <mxGeometry x="350" y="140" width="100" height="60" as="geometry" />
        </mxCell>
        <mxCell id="hnj8AC3YeiDMYb95IlZ8-3" value="peso" style="html=1;strokeWidth=2;shape=manualInput;whiteSpace=wrap;rounded=1;size=26;arcSize=11;" vertex="1" parent="1">
          <mxGeometry x="350" y="230" width="100" height="60" as="geometry" />
        </mxCell>
        <mxCell id="hnj8AC3YeiDMYb95IlZ8-5" style="edgeStyle=orthogonalEdgeStyle;rounded=0;orthogonalLoop=1;jettySize=auto;html=1;exitX=0.5;exitY=1;exitDx=0;exitDy=0;exitPerimeter=0;entryX=0.5;entryY=0.233;entryDx=0;entryDy=0;entryPerimeter=0;" edge="1" parent="1" source="hnj8AC3YeiDMYb95IlZ8-1" target="hnj8AC3YeiDMYb95IlZ8-2">
          <mxGeometry relative="1" as="geometry" />
        </mxCell>
        <mxCell id="hnj8AC3YeiDMYb95IlZ8-6" style="edgeStyle=orthogonalEdgeStyle;rounded=0;orthogonalLoop=1;jettySize=auto;html=1;exitX=0.5;exitY=1;exitDx=0;exitDy=0;entryX=0.5;entryY=0.25;entryDx=0;entryDy=0;entryPerimeter=0;" edge="1" parent="1" source="hnj8AC3YeiDMYb95IlZ8-2" target="hnj8AC3YeiDMYb95IlZ8-3">
          <mxGeometry relative="1" as="geometry" />
        </mxCell>
        <mxCell id="hnj8AC3YeiDMYb95IlZ8-7" style="edgeStyle=orthogonalEdgeStyle;rounded=0;orthogonalLoop=1;jettySize=auto;html=1;exitX=0.5;exitY=1;exitDx=0;exitDy=0;entryX=0.5;entryY=0;entryDx=0;entryDy=0;" edge="1" parent="1" source="hnj8AC3YeiDMYb95IlZ8-3" target="hnj8AC3YeiDMYb95IlZ8-53">
          <mxGeometry relative="1" as="geometry">
            <mxPoint x="400" y="336.02" as="targetPoint" />
          </mxGeometry>
        </mxCell>
        <mxCell id="hnj8AC3YeiDMYb95IlZ8-53" value="imc = peso / (altura*altura)" style="rounded=1;whiteSpace=wrap;html=1;absoluteArcSize=1;arcSize=14;strokeWidth=2;" vertex="1" parent="1">
          <mxGeometry x="350" y="340" width="100" height="40" as="geometry" />
        </mxCell>
        <mxCell id="hnj8AC3YeiDMYb95IlZ8-67" value="Fim" style="strokeWidth=2;html=1;shape=mxgraph.flowchart.start_1;whiteSpace=wrap;" vertex="1" parent="1">
          <mxGeometry x="350" y="760" width="100" height="60" as="geometry" />
        </mxCell>
        <mxCell id="hnj8AC3YeiDMYb95IlZ8-69" value="imc" style="strokeWidth=2;html=1;shape=mxgraph.flowchart.display;whiteSpace=wrap;" vertex="1" parent="1">
          <mxGeometry x="350" y="430" width="100" height="60" as="geometry" />
        </mxCell>
        <mxCell id="hnj8AC3YeiDMYb95IlZ8-70" style="edgeStyle=orthogonalEdgeStyle;rounded=0;orthogonalLoop=1;jettySize=auto;html=1;exitX=0.5;exitY=1;exitDx=0;exitDy=0;entryX=0.5;entryY=0;entryDx=0;entryDy=0;entryPerimeter=0;" edge="1" parent="1" source="hnj8AC3YeiDMYb95IlZ8-53" target="hnj8AC3YeiDMYb95IlZ8-69">
          <mxGeometry relative="1" as="geometry" />
        </mxCell>
        <mxCell id="hnj8AC3YeiDMYb95IlZ8-71" value="imc &amp;gt; =25" style="strokeWidth=2;html=1;shape=mxgraph.flowchart.decision;whiteSpace=wrap;" vertex="1" parent="1">
          <mxGeometry x="350" y="530" width="100" height="70" as="geometry" />
        </mxCell>
        <mxCell id="hnj8AC3YeiDMYb95IlZ8-72" style="edgeStyle=orthogonalEdgeStyle;rounded=0;orthogonalLoop=1;jettySize=auto;html=1;exitX=0.5;exitY=1;exitDx=0;exitDy=0;exitPerimeter=0;entryX=0.5;entryY=0;entryDx=0;entryDy=0;entryPerimeter=0;" edge="1" parent="1" source="hnj8AC3YeiDMYb95IlZ8-69" target="hnj8AC3YeiDMYb95IlZ8-71">
          <mxGeometry relative="1" as="geometry" />
        </mxCell>
        <mxCell id="hnj8AC3YeiDMYb95IlZ8-73" value="Indice acima" style="strokeWidth=2;html=1;shape=mxgraph.flowchart.display;whiteSpace=wrap;" vertex="1" parent="1">
          <mxGeometry x="350" y="650" width="100" height="60" as="geometry" />
        </mxCell>
        <mxCell id="hnj8AC3YeiDMYb95IlZ8-74" style="edgeStyle=orthogonalEdgeStyle;rounded=0;orthogonalLoop=1;jettySize=auto;html=1;exitX=0.5;exitY=1;exitDx=0;exitDy=0;exitPerimeter=0;entryX=0.5;entryY=0;entryDx=0;entryDy=0;entryPerimeter=0;" edge="1" parent="1" source="hnj8AC3YeiDMYb95IlZ8-71" target="hnj8AC3YeiDMYb95IlZ8-73">
          <mxGeometry relative="1" as="geometry" />
        </mxCell>
        <mxCell id="hnj8AC3YeiDMYb95IlZ8-75" style="edgeStyle=orthogonalEdgeStyle;rounded=0;orthogonalLoop=1;jettySize=auto;html=1;exitX=0.5;exitY=1;exitDx=0;exitDy=0;exitPerimeter=0;entryX=0.5;entryY=0;entryDx=0;entryDy=0;entryPerimeter=0;" edge="1" parent="1" source="hnj8AC3YeiDMYb95IlZ8-73" target="hnj8AC3YeiDMYb95IlZ8-67">
          <mxGeometry relative="1" as="geometry" />
        </mxCell>
      </root>
    </mxGraphModel>
  </diagram>
</mxfile>
